<mxfile host="app.diagrams.net" modified="2023-07-01T16:24:04.101Z" agent="Mozilla/5.0 (Windows NT 10.0; Win64; x64) AppleWebKit/537.36 (KHTML, like Gecko) Chrome/114.0.0.0 Safari/537.36" etag="Lw6Mczep77vQ_z9BiEPV" version="21.5.2" type="github">
  <diagram name="Page-1" id="9f46799a-70d6-7492-0946-bef42562c5a5">
    <mxGraphModel dx="794" dy="509" grid="1" gridSize="10" guides="1" tooltips="1" connect="1" arrows="1" fold="1" page="1" pageScale="1" pageWidth="1100" pageHeight="850" background="none" math="0" shadow="0">
      <root>
        <mxCell id="0" />
        <mxCell id="1" parent="0" />
        <mxCell id="WwVNH3uLdDdQ6TR5b7Ma-1" value="CONGTY" style="swimlane;html=1;fontStyle=1;align=center;verticalAlign=top;childLayout=stackLayout;horizontal=1;startSize=26;horizontalStack=0;resizeParent=1;resizeLast=0;collapsible=1;marginBottom=0;swimlaneFillColor=#ffffff;rounded=0;shadow=0;comic=0;labelBackgroundColor=default;strokeWidth=1;fillColor=none;fontFamily=Verdana;fontSize=12" vertex="1" parent="1">
          <mxGeometry width="250" height="480" as="geometry" />
        </mxCell>
        <mxCell id="WwVNH3uLdDdQ6TR5b7Ma-2" value="- nhanvien: NHANVIEN**" style="text;html=1;strokeColor=none;fillColor=none;align=left;verticalAlign=top;spacingLeft=4;spacingRight=4;whiteSpace=wrap;overflow=hidden;rotatable=0;points=[[0,0.5],[1,0.5]];portConstraint=eastwest;" vertex="1" parent="WwVNH3uLdDdQ6TR5b7Ma-1">
          <mxGeometry y="26" width="250" height="26" as="geometry" />
        </mxCell>
        <mxCell id="WwVNH3uLdDdQ6TR5b7Ma-3" value="- sl: int" style="text;html=1;strokeColor=none;fillColor=none;align=left;verticalAlign=top;spacingLeft=4;spacingRight=4;whiteSpace=wrap;overflow=hidden;rotatable=0;points=[[0,0.5],[1,0.5]];portConstraint=eastwest;" vertex="1" parent="WwVNH3uLdDdQ6TR5b7Ma-1">
          <mxGeometry y="52" width="250" height="26" as="geometry" />
        </mxCell>
        <mxCell id="WwVNH3uLdDdQ6TR5b7Ma-4" value="" style="line;html=1;strokeWidth=1;fillColor=none;align=left;verticalAlign=middle;spacingTop=-1;spacingLeft=3;spacingRight=3;rotatable=0;labelPosition=right;points=[];portConstraint=eastwest;" vertex="1" parent="WwVNH3uLdDdQ6TR5b7Ma-1">
          <mxGeometry y="78" width="250" height="8" as="geometry" />
        </mxCell>
        <mxCell id="WwVNH3uLdDdQ6TR5b7Ma-5" value="+ CONGTY()" style="text;html=1;strokeColor=none;fillColor=none;align=left;verticalAlign=top;spacingLeft=4;spacingRight=4;whiteSpace=wrap;overflow=hidden;rotatable=0;points=[[0,0.5],[1,0.5]];portConstraint=eastwest;" vertex="1" parent="WwVNH3uLdDdQ6TR5b7Ma-1">
          <mxGeometry y="86" width="250" height="26" as="geometry" />
        </mxCell>
        <mxCell id="WwVNH3uLdDdQ6TR5b7Ma-6" value="+ ~CONGTY()" style="text;html=1;strokeColor=none;fillColor=none;align=left;verticalAlign=top;spacingLeft=4;spacingRight=4;whiteSpace=wrap;overflow=hidden;rotatable=0;points=[[0,0.5],[1,0.5]];portConstraint=eastwest;" vertex="1" parent="WwVNH3uLdDdQ6TR5b7Ma-1">
          <mxGeometry y="112" width="250" height="26" as="geometry" />
        </mxCell>
        <mxCell id="WwVNH3uLdDdQ6TR5b7Ma-7" value="+ GetSL(): int" style="text;html=1;strokeColor=none;fillColor=none;align=left;verticalAlign=top;spacingLeft=4;spacingRight=4;whiteSpace=wrap;overflow=hidden;rotatable=0;points=[[0,0.5],[1,0.5]];portConstraint=eastwest;" vertex="1" parent="WwVNH3uLdDdQ6TR5b7Ma-1">
          <mxGeometry y="138" width="250" height="26" as="geometry" />
        </mxCell>
        <mxCell id="WwVNH3uLdDdQ6TR5b7Ma-8" value="+ Nhap(): void" style="text;html=1;strokeColor=none;fillColor=none;align=left;verticalAlign=top;spacingLeft=4;spacingRight=4;whiteSpace=wrap;overflow=hidden;rotatable=0;points=[[0,0.5],[1,0.5]];portConstraint=eastwest;" vertex="1" parent="WwVNH3uLdDdQ6TR5b7Ma-1">
          <mxGeometry y="164" width="250" height="26" as="geometry" />
        </mxCell>
        <mxCell id="WwVNH3uLdDdQ6TR5b7Ma-9" value="+ Xuat(): void" style="text;html=1;strokeColor=none;fillColor=none;align=left;verticalAlign=top;spacingLeft=4;spacingRight=4;whiteSpace=wrap;overflow=hidden;rotatable=0;points=[[0,0.5],[1,0.5]];portConstraint=eastwest;" vertex="1" parent="WwVNH3uLdDdQ6TR5b7Ma-1">
          <mxGeometry y="190" width="250" height="26" as="geometry" />
        </mxCell>
        <mxCell id="WwVNH3uLdDdQ6TR5b7Ma-10" value="+ NhapNhanVien(): NHANVIEN*&amp;nbsp;" style="text;html=1;strokeColor=none;fillColor=none;align=left;verticalAlign=top;spacingLeft=4;spacingRight=4;whiteSpace=wrap;overflow=hidden;rotatable=0;points=[[0,0.5],[1,0.5]];portConstraint=eastwest;" vertex="1" parent="WwVNH3uLdDdQ6TR5b7Ma-1">
          <mxGeometry y="216" width="250" height="26" as="geometry" />
        </mxCell>
        <mxCell id="WwVNH3uLdDdQ6TR5b7Ma-70" value="&lt;font style=&quot;font-size: 11px;&quot;&gt;+ TienLuongTrungBinhCuaNhanVien(): double&lt;/font&gt;" style="text;html=1;strokeColor=none;fillColor=none;align=left;verticalAlign=top;spacingLeft=4;spacingRight=4;whiteSpace=wrap;overflow=hidden;rotatable=0;points=[[0,0.5],[1,0.5]];portConstraint=eastwest;" vertex="1" parent="WwVNH3uLdDdQ6TR5b7Ma-1">
          <mxGeometry y="242" width="250" height="26" as="geometry" />
        </mxCell>
        <mxCell id="WwVNH3uLdDdQ6TR5b7Ma-11" value="&lt;font style=&quot;font-size: 10px;&quot;&gt;+ NhanVienCoMucLuongBeHonTrungBinh(): void&lt;/font&gt;" style="text;html=1;strokeColor=none;fillColor=none;align=left;verticalAlign=top;spacingLeft=4;spacingRight=4;whiteSpace=wrap;overflow=hidden;rotatable=0;points=[[0,0.5],[1,0.5]];portConstraint=eastwest;" vertex="1" parent="WwVNH3uLdDdQ6TR5b7Ma-1">
          <mxGeometry y="268" width="250" height="26" as="geometry" />
        </mxCell>
        <mxCell id="WwVNH3uLdDdQ6TR5b7Ma-69" value="&lt;font style=&quot;font-size: 9px;&quot;&gt;+ NhanVienCoMucLuongToiThieuLaMucNhapVao(): void&lt;/font&gt;" style="text;html=1;strokeColor=none;fillColor=none;align=left;verticalAlign=top;spacingLeft=4;spacingRight=4;whiteSpace=wrap;overflow=hidden;rotatable=0;points=[[0,0.5],[1,0.5]];portConstraint=eastwest;" vertex="1" parent="WwVNH3uLdDdQ6TR5b7Ma-1">
          <mxGeometry y="294" width="250" height="26" as="geometry" />
        </mxCell>
        <mxCell id="WwVNH3uLdDdQ6TR5b7Ma-16" value="NHANVIEN" style="swimlane;html=1;fontStyle=1;align=center;verticalAlign=top;childLayout=stackLayout;horizontal=1;startSize=26;horizontalStack=0;resizeParent=1;resizeLast=0;collapsible=1;marginBottom=0;swimlaneFillColor=#ffffff;rounded=0;shadow=0;comic=0;labelBackgroundColor=none;strokeWidth=1;fillColor=none;fontFamily=Verdana;fontSize=12" vertex="1" parent="1">
          <mxGeometry x="440" y="40" width="200" height="658" as="geometry" />
        </mxCell>
        <mxCell id="WwVNH3uLdDdQ6TR5b7Ma-17" value="#manhanvien: string" style="text;html=1;strokeColor=none;fillColor=none;align=left;verticalAlign=top;spacingLeft=4;spacingRight=4;whiteSpace=wrap;overflow=hidden;rotatable=0;points=[[0,0.5],[1,0.5]];portConstraint=eastwest;fontSize=12;" vertex="1" parent="WwVNH3uLdDdQ6TR5b7Ma-16">
          <mxGeometry y="26" width="200" height="26" as="geometry" />
        </mxCell>
        <mxCell id="WwVNH3uLdDdQ6TR5b7Ma-18" value="#hoten: string" style="text;html=1;strokeColor=none;fillColor=none;align=left;verticalAlign=top;spacingLeft=4;spacingRight=4;whiteSpace=wrap;overflow=hidden;rotatable=0;points=[[0,0.5],[1,0.5]];portConstraint=eastwest;fontSize=12;" vertex="1" parent="WwVNH3uLdDdQ6TR5b7Ma-16">
          <mxGeometry y="52" width="200" height="26" as="geometry" />
        </mxCell>
        <mxCell id="WwVNH3uLdDdQ6TR5b7Ma-71" value="#tuoi: int" style="text;html=1;strokeColor=none;fillColor=none;align=left;verticalAlign=top;spacingLeft=4;spacingRight=4;whiteSpace=wrap;overflow=hidden;rotatable=0;points=[[0,0.5],[1,0.5]];portConstraint=eastwest;fontSize=12;" vertex="1" parent="WwVNH3uLdDdQ6TR5b7Ma-16">
          <mxGeometry y="78" width="200" height="26" as="geometry" />
        </mxCell>
        <mxCell id="WwVNH3uLdDdQ6TR5b7Ma-19" value="#sodienthoai: string" style="text;html=1;strokeColor=none;fillColor=none;align=left;verticalAlign=top;spacingLeft=4;spacingRight=4;whiteSpace=wrap;overflow=hidden;rotatable=0;points=[[0,0.5],[1,0.5]];portConstraint=eastwest;fontSize=12;" vertex="1" parent="WwVNH3uLdDdQ6TR5b7Ma-16">
          <mxGeometry y="104" width="200" height="26" as="geometry" />
        </mxCell>
        <mxCell id="WwVNH3uLdDdQ6TR5b7Ma-72" value="#email: string" style="text;html=1;strokeColor=none;fillColor=none;align=left;verticalAlign=top;spacingLeft=4;spacingRight=4;whiteSpace=wrap;overflow=hidden;rotatable=0;points=[[0,0.5],[1,0.5]];portConstraint=eastwest;fontSize=12;" vertex="1" parent="WwVNH3uLdDdQ6TR5b7Ma-16">
          <mxGeometry y="130" width="200" height="26" as="geometry" />
        </mxCell>
        <mxCell id="WwVNH3uLdDdQ6TR5b7Ma-73" value="#luongcoban: double" style="text;html=1;strokeColor=none;fillColor=none;align=left;verticalAlign=top;spacingLeft=4;spacingRight=4;whiteSpace=wrap;overflow=hidden;rotatable=0;points=[[0,0.5],[1,0.5]];portConstraint=eastwest;fontSize=12;" vertex="1" parent="WwVNH3uLdDdQ6TR5b7Ma-16">
          <mxGeometry y="156" width="200" height="26" as="geometry" />
        </mxCell>
        <mxCell id="WwVNH3uLdDdQ6TR5b7Ma-20" value="" style="line;html=1;strokeWidth=1;fillColor=none;align=left;verticalAlign=middle;spacingTop=-1;spacingLeft=3;spacingRight=3;rotatable=0;labelPosition=right;points=[];portConstraint=eastwest;" vertex="1" parent="WwVNH3uLdDdQ6TR5b7Ma-16">
          <mxGeometry y="182" width="200" height="8" as="geometry" />
        </mxCell>
        <mxCell id="WwVNH3uLdDdQ6TR5b7Ma-21" value="+ NHANVIEN()" style="text;html=1;strokeColor=none;fillColor=none;align=left;verticalAlign=top;spacingLeft=4;spacingRight=4;whiteSpace=wrap;overflow=hidden;rotatable=0;points=[[0,0.5],[1,0.5]];portConstraint=eastwest;fontSize=11;" vertex="1" parent="WwVNH3uLdDdQ6TR5b7Ma-16">
          <mxGeometry y="190" width="200" height="26" as="geometry" />
        </mxCell>
        <mxCell id="WwVNH3uLdDdQ6TR5b7Ma-22" value="+ ~NHANVIEN()" style="text;html=1;strokeColor=none;fillColor=none;align=left;verticalAlign=top;spacingLeft=4;spacingRight=4;whiteSpace=wrap;overflow=hidden;rotatable=0;points=[[0,0.5],[1,0.5]];portConstraint=eastwest;fontSize=11;" vertex="1" parent="WwVNH3uLdDdQ6TR5b7Ma-16">
          <mxGeometry y="216" width="200" height="26" as="geometry" />
        </mxCell>
        <mxCell id="WwVNH3uLdDdQ6TR5b7Ma-23" value="+ getMaNhanVien(): string" style="text;html=1;strokeColor=none;fillColor=none;align=left;verticalAlign=top;spacingLeft=4;spacingRight=4;whiteSpace=wrap;overflow=hidden;rotatable=0;points=[[0,0.5],[1,0.5]];portConstraint=eastwest;fontSize=12;" vertex="1" parent="WwVNH3uLdDdQ6TR5b7Ma-16">
          <mxGeometry y="242" width="200" height="26" as="geometry" />
        </mxCell>
        <mxCell id="WwVNH3uLdDdQ6TR5b7Ma-24" value="&lt;font style=&quot;font-size: 12px;&quot;&gt;+ getHoTen(): string&lt;/font&gt;" style="text;html=1;strokeColor=none;fillColor=none;align=left;verticalAlign=top;spacingLeft=4;spacingRight=4;whiteSpace=wrap;overflow=hidden;rotatable=0;points=[[0,0.5],[1,0.5]];portConstraint=eastwest;fontSize=12;" vertex="1" parent="WwVNH3uLdDdQ6TR5b7Ma-16">
          <mxGeometry y="268" width="200" height="26" as="geometry" />
        </mxCell>
        <mxCell id="WwVNH3uLdDdQ6TR5b7Ma-74" value="&lt;font style=&quot;font-size: 12px;&quot;&gt;+ getTuoi(): int&lt;/font&gt;" style="text;html=1;strokeColor=none;fillColor=none;align=left;verticalAlign=top;spacingLeft=4;spacingRight=4;whiteSpace=wrap;overflow=hidden;rotatable=0;points=[[0,0.5],[1,0.5]];portConstraint=eastwest;fontSize=12;" vertex="1" parent="WwVNH3uLdDdQ6TR5b7Ma-16">
          <mxGeometry y="294" width="200" height="26" as="geometry" />
        </mxCell>
        <mxCell id="WwVNH3uLdDdQ6TR5b7Ma-25" value="&lt;font style=&quot;font-size: 12px;&quot;&gt;+ getSoDienThoai():string&lt;/font&gt;" style="text;html=1;strokeColor=none;fillColor=none;align=left;verticalAlign=top;spacingLeft=4;spacingRight=4;whiteSpace=wrap;overflow=hidden;rotatable=0;points=[[0,0.5],[1,0.5]];portConstraint=eastwest;fontSize=12;" vertex="1" parent="WwVNH3uLdDdQ6TR5b7Ma-16">
          <mxGeometry y="320" width="200" height="26" as="geometry" />
        </mxCell>
        <mxCell id="WwVNH3uLdDdQ6TR5b7Ma-75" value="&lt;font style=&quot;font-size: 12px;&quot;&gt;+ getEmail():string&lt;/font&gt;" style="text;html=1;strokeColor=none;fillColor=none;align=left;verticalAlign=top;spacingLeft=4;spacingRight=4;whiteSpace=wrap;overflow=hidden;rotatable=0;points=[[0,0.5],[1,0.5]];portConstraint=eastwest;fontSize=12;" vertex="1" parent="WwVNH3uLdDdQ6TR5b7Ma-16">
          <mxGeometry y="346" width="200" height="26" as="geometry" />
        </mxCell>
        <mxCell id="WwVNH3uLdDdQ6TR5b7Ma-76" value="&lt;font style=&quot;font-size: 12px;&quot;&gt;+ getLuongCoBan():sdouble&lt;/font&gt;" style="text;html=1;strokeColor=none;fillColor=none;align=left;verticalAlign=top;spacingLeft=4;spacingRight=4;whiteSpace=wrap;overflow=hidden;rotatable=0;points=[[0,0.5],[1,0.5]];portConstraint=eastwest;fontSize=12;" vertex="1" parent="WwVNH3uLdDdQ6TR5b7Ma-16">
          <mxGeometry y="372" width="200" height="26" as="geometry" />
        </mxCell>
        <mxCell id="WwVNH3uLdDdQ6TR5b7Ma-26" value="&lt;font style=&quot;font-size: 12px;&quot;&gt;+ setMaNhanVien(string)&lt;/font&gt;: void" style="text;html=1;strokeColor=none;fillColor=none;align=left;verticalAlign=top;spacingLeft=4;spacingRight=4;whiteSpace=wrap;overflow=hidden;rotatable=0;points=[[0,0.5],[1,0.5]];portConstraint=eastwest;fontSize=12;" vertex="1" parent="WwVNH3uLdDdQ6TR5b7Ma-16">
          <mxGeometry y="398" width="200" height="26" as="geometry" />
        </mxCell>
        <mxCell id="WwVNH3uLdDdQ6TR5b7Ma-77" value="&lt;font style=&quot;font-size: 12px;&quot;&gt;+ setHoTen(string)&lt;/font&gt;: void" style="text;html=1;strokeColor=none;fillColor=none;align=left;verticalAlign=top;spacingLeft=4;spacingRight=4;whiteSpace=wrap;overflow=hidden;rotatable=0;points=[[0,0.5],[1,0.5]];portConstraint=eastwest;fontSize=12;" vertex="1" parent="WwVNH3uLdDdQ6TR5b7Ma-16">
          <mxGeometry y="424" width="200" height="26" as="geometry" />
        </mxCell>
        <mxCell id="WwVNH3uLdDdQ6TR5b7Ma-78" value="&lt;font style=&quot;font-size: 12px;&quot;&gt;+ setTuoi(int)&lt;/font&gt;: void" style="text;html=1;strokeColor=none;fillColor=none;align=left;verticalAlign=top;spacingLeft=4;spacingRight=4;whiteSpace=wrap;overflow=hidden;rotatable=0;points=[[0,0.5],[1,0.5]];portConstraint=eastwest;fontSize=12;" vertex="1" parent="WwVNH3uLdDdQ6TR5b7Ma-16">
          <mxGeometry y="450" width="200" height="26" as="geometry" />
        </mxCell>
        <mxCell id="WwVNH3uLdDdQ6TR5b7Ma-79" value="&lt;font style=&quot;font-size: 12px;&quot;&gt;+ setSoDienThoai(string)&lt;/font&gt;: void" style="text;html=1;strokeColor=none;fillColor=none;align=left;verticalAlign=top;spacingLeft=4;spacingRight=4;whiteSpace=wrap;overflow=hidden;rotatable=0;points=[[0,0.5],[1,0.5]];portConstraint=eastwest;fontSize=12;" vertex="1" parent="WwVNH3uLdDdQ6TR5b7Ma-16">
          <mxGeometry y="476" width="200" height="26" as="geometry" />
        </mxCell>
        <mxCell id="WwVNH3uLdDdQ6TR5b7Ma-80" value="&lt;font style=&quot;font-size: 12px;&quot;&gt;+ setEmail(string)&lt;/font&gt;: void" style="text;html=1;strokeColor=none;fillColor=none;align=left;verticalAlign=top;spacingLeft=4;spacingRight=4;whiteSpace=wrap;overflow=hidden;rotatable=0;points=[[0,0.5],[1,0.5]];portConstraint=eastwest;fontSize=12;" vertex="1" parent="WwVNH3uLdDdQ6TR5b7Ma-16">
          <mxGeometry y="502" width="200" height="26" as="geometry" />
        </mxCell>
        <mxCell id="WwVNH3uLdDdQ6TR5b7Ma-81" value="&lt;font style=&quot;font-size: 12px;&quot;&gt;+ setLuongCoBan(double)&lt;/font&gt;: void" style="text;html=1;strokeColor=none;fillColor=none;align=left;verticalAlign=top;spacingLeft=4;spacingRight=4;whiteSpace=wrap;overflow=hidden;rotatable=0;points=[[0,0.5],[1,0.5]];portConstraint=eastwest;fontSize=12;" vertex="1" parent="WwVNH3uLdDdQ6TR5b7Ma-16">
          <mxGeometry y="528" width="200" height="26" as="geometry" />
        </mxCell>
        <mxCell id="WwVNH3uLdDdQ6TR5b7Ma-27" value="+ virtual Nhap(): void&lt;br&gt;" style="text;html=1;strokeColor=none;fillColor=none;align=left;verticalAlign=top;spacingLeft=4;spacingRight=4;whiteSpace=wrap;overflow=hidden;rotatable=0;points=[[0,0.5],[1,0.5]];portConstraint=eastwest;" vertex="1" parent="WwVNH3uLdDdQ6TR5b7Ma-16">
          <mxGeometry y="554" width="200" height="26" as="geometry" />
        </mxCell>
        <mxCell id="WwVNH3uLdDdQ6TR5b7Ma-28" value="+ virtual Xuat(): void" style="text;html=1;strokeColor=none;fillColor=none;align=left;verticalAlign=top;spacingLeft=4;spacingRight=4;whiteSpace=wrap;overflow=hidden;rotatable=0;points=[[0,0.5],[1,0.5]];portConstraint=eastwest;" vertex="1" parent="WwVNH3uLdDdQ6TR5b7Ma-16">
          <mxGeometry y="580" width="200" height="26" as="geometry" />
        </mxCell>
        <mxCell id="WwVNH3uLdDdQ6TR5b7Ma-29" value="+ virtual Luong() = 0: long" style="text;html=1;strokeColor=none;fillColor=none;align=left;verticalAlign=top;spacingLeft=4;spacingRight=4;whiteSpace=wrap;overflow=hidden;rotatable=0;points=[[0,0.5],[1,0.5]];portConstraint=eastwest;" vertex="1" parent="WwVNH3uLdDdQ6TR5b7Ma-16">
          <mxGeometry y="606" width="200" height="26" as="geometry" />
        </mxCell>
        <mxCell id="WwVNH3uLdDdQ6TR5b7Ma-30" value="+ virtual GetLoai() = 0: string" style="text;html=1;strokeColor=none;fillColor=none;align=left;verticalAlign=top;spacingLeft=4;spacingRight=4;whiteSpace=wrap;overflow=hidden;rotatable=0;points=[[0,0.5],[1,0.5]];portConstraint=eastwest;" vertex="1" parent="WwVNH3uLdDdQ6TR5b7Ma-16">
          <mxGeometry y="632" width="200" height="26" as="geometry" />
        </mxCell>
        <mxCell id="WwVNH3uLdDdQ6TR5b7Ma-31" value="KIEMCHUNGVIEN" style="swimlane;html=1;fontStyle=1;align=center;verticalAlign=top;childLayout=stackLayout;horizontal=1;startSize=26;horizontalStack=0;resizeParent=1;resizeLast=0;collapsible=1;marginBottom=0;swimlaneFillColor=#ffffff;rounded=0;shadow=0;comic=0;labelBackgroundColor=none;strokeWidth=1;fillColor=none;fontFamily=Verdana;fontSize=12" vertex="1" parent="1">
          <mxGeometry x="210" y="760" width="230" height="370" as="geometry" />
        </mxCell>
        <mxCell id="WwVNH3uLdDdQ6TR5b7Ma-32" value="- sogiolamthem: double" style="text;html=1;strokeColor=none;fillColor=none;align=left;verticalAlign=top;spacingLeft=4;spacingRight=4;whiteSpace=wrap;overflow=hidden;rotatable=0;points=[[0,0.5],[1,0.5]];portConstraint=eastwest;" vertex="1" parent="WwVNH3uLdDdQ6TR5b7Ma-31">
          <mxGeometry y="26" width="230" height="26" as="geometry" />
        </mxCell>
        <mxCell id="WwVNH3uLdDdQ6TR5b7Ma-34" value="" style="line;html=1;strokeWidth=1;fillColor=none;align=left;verticalAlign=middle;spacingTop=-1;spacingLeft=3;spacingRight=3;rotatable=0;labelPosition=right;points=[];portConstraint=eastwest;" vertex="1" parent="WwVNH3uLdDdQ6TR5b7Ma-31">
          <mxGeometry y="52" width="230" height="8" as="geometry" />
        </mxCell>
        <mxCell id="WwVNH3uLdDdQ6TR5b7Ma-35" value="+ NVBIENCHE()&lt;br&gt;" style="text;html=1;strokeColor=none;fillColor=none;align=left;verticalAlign=top;spacingLeft=4;spacingRight=4;whiteSpace=wrap;overflow=hidden;rotatable=0;points=[[0,0.5],[1,0.5]];portConstraint=eastwest;" vertex="1" parent="WwVNH3uLdDdQ6TR5b7Ma-31">
          <mxGeometry y="60" width="230" height="26" as="geometry" />
        </mxCell>
        <mxCell id="WwVNH3uLdDdQ6TR5b7Ma-36" value="+ ~NVBIENCHE()" style="text;html=1;strokeColor=none;fillColor=none;align=left;verticalAlign=top;spacingLeft=4;spacingRight=4;whiteSpace=wrap;overflow=hidden;rotatable=0;points=[[0,0.5],[1,0.5]];portConstraint=eastwest;" vertex="1" parent="WwVNH3uLdDdQ6TR5b7Ma-31">
          <mxGeometry y="86" width="230" height="26" as="geometry" />
        </mxCell>
        <mxCell id="WwVNH3uLdDdQ6TR5b7Ma-38" value="+ getSoGioLamThem(): double" style="text;html=1;strokeColor=none;fillColor=none;align=left;verticalAlign=top;spacingLeft=4;spacingRight=4;whiteSpace=wrap;overflow=hidden;rotatable=0;points=[[0,0.5],[1,0.5]];portConstraint=eastwest;" vertex="1" parent="WwVNH3uLdDdQ6TR5b7Ma-31">
          <mxGeometry y="112" width="230" height="26" as="geometry" />
        </mxCell>
        <mxCell id="WwVNH3uLdDdQ6TR5b7Ma-39" value="+ setSoGioLamThem(double): void" style="text;html=1;strokeColor=none;fillColor=none;align=left;verticalAlign=top;spacingLeft=4;spacingRight=4;whiteSpace=wrap;overflow=hidden;rotatable=0;points=[[0,0.5],[1,0.5]];portConstraint=eastwest;" vertex="1" parent="WwVNH3uLdDdQ6TR5b7Ma-31">
          <mxGeometry y="138" width="230" height="26" as="geometry" />
        </mxCell>
        <mxCell id="WwVNH3uLdDdQ6TR5b7Ma-41" value="+ Nhap(): void" style="text;html=1;strokeColor=none;fillColor=none;align=left;verticalAlign=top;spacingLeft=4;spacingRight=4;whiteSpace=wrap;overflow=hidden;rotatable=0;points=[[0,0.5],[1,0.5]];portConstraint=eastwest;" vertex="1" parent="WwVNH3uLdDdQ6TR5b7Ma-31">
          <mxGeometry y="164" width="230" height="26" as="geometry" />
        </mxCell>
        <mxCell id="WwVNH3uLdDdQ6TR5b7Ma-42" value="+ Xuat(): void" style="text;html=1;strokeColor=none;fillColor=none;align=left;verticalAlign=top;spacingLeft=4;spacingRight=4;whiteSpace=wrap;overflow=hidden;rotatable=0;points=[[0,0.5],[1,0.5]];portConstraint=eastwest;" vertex="1" parent="WwVNH3uLdDdQ6TR5b7Ma-31">
          <mxGeometry y="190" width="230" height="26" as="geometry" />
        </mxCell>
        <mxCell id="WwVNH3uLdDdQ6TR5b7Ma-43" value="+ Luong(): long" style="text;html=1;strokeColor=none;fillColor=none;align=left;verticalAlign=top;spacingLeft=4;spacingRight=4;whiteSpace=wrap;overflow=hidden;rotatable=0;points=[[0,0.5],[1,0.5]];portConstraint=eastwest;" vertex="1" parent="WwVNH3uLdDdQ6TR5b7Ma-31">
          <mxGeometry y="216" width="230" height="26" as="geometry" />
        </mxCell>
        <mxCell id="WwVNH3uLdDdQ6TR5b7Ma-44" value="+ GetLoai(): string" style="text;html=1;strokeColor=none;fillColor=none;align=left;verticalAlign=top;spacingLeft=4;spacingRight=4;whiteSpace=wrap;overflow=hidden;rotatable=0;points=[[0,0.5],[1,0.5]];portConstraint=eastwest;" vertex="1" parent="WwVNH3uLdDdQ6TR5b7Ma-31">
          <mxGeometry y="242" width="230" height="26" as="geometry" />
        </mxCell>
        <mxCell id="WwVNH3uLdDdQ6TR5b7Ma-45" value="LAPTRINHVIEN" style="swimlane;html=1;fontStyle=1;align=center;verticalAlign=top;childLayout=stackLayout;horizontal=1;startSize=26;horizontalStack=0;resizeParent=1;resizeLast=0;collapsible=1;marginBottom=0;swimlaneFillColor=#ffffff;rounded=0;shadow=0;comic=0;labelBackgroundColor=none;strokeWidth=1;fillColor=none;fontFamily=Verdana;fontSize=12" vertex="1" parent="1">
          <mxGeometry x="640" y="760" width="220" height="440" as="geometry" />
        </mxCell>
        <mxCell id="WwVNH3uLdDdQ6TR5b7Ma-47" value="- soloiphathienduoc: int" style="text;html=1;strokeColor=none;fillColor=none;align=left;verticalAlign=top;spacingLeft=4;spacingRight=4;whiteSpace=wrap;overflow=hidden;rotatable=0;points=[[0,0.5],[1,0.5]];portConstraint=eastwest;" vertex="1" parent="WwVNH3uLdDdQ6TR5b7Ma-45">
          <mxGeometry y="26" width="220" height="26" as="geometry" />
        </mxCell>
        <mxCell id="WwVNH3uLdDdQ6TR5b7Ma-49" value="" style="line;html=1;strokeWidth=1;fillColor=none;align=left;verticalAlign=middle;spacingTop=-1;spacingLeft=3;spacingRight=3;rotatable=0;labelPosition=right;points=[];portConstraint=eastwest;" vertex="1" parent="WwVNH3uLdDdQ6TR5b7Ma-45">
          <mxGeometry y="52" width="220" height="8" as="geometry" />
        </mxCell>
        <mxCell id="WwVNH3uLdDdQ6TR5b7Ma-50" value="+ NVHOPDONG()" style="text;html=1;strokeColor=none;fillColor=none;align=left;verticalAlign=top;spacingLeft=4;spacingRight=4;whiteSpace=wrap;overflow=hidden;rotatable=0;points=[[0,0.5],[1,0.5]];portConstraint=eastwest;" vertex="1" parent="WwVNH3uLdDdQ6TR5b7Ma-45">
          <mxGeometry y="60" width="220" height="26" as="geometry" />
        </mxCell>
        <mxCell id="WwVNH3uLdDdQ6TR5b7Ma-51" value="+ ~NVHOPDONG()" style="text;html=1;strokeColor=none;fillColor=none;align=left;verticalAlign=top;spacingLeft=4;spacingRight=4;whiteSpace=wrap;overflow=hidden;rotatable=0;points=[[0,0.5],[1,0.5]];portConstraint=eastwest;" vertex="1" parent="WwVNH3uLdDdQ6TR5b7Ma-45">
          <mxGeometry y="86" width="220" height="26" as="geometry" />
        </mxCell>
        <mxCell id="WwVNH3uLdDdQ6TR5b7Ma-53" value="+ getSoLoiPhatHienDuoc(): int" style="text;html=1;strokeColor=none;fillColor=none;align=left;verticalAlign=top;spacingLeft=4;spacingRight=4;whiteSpace=wrap;overflow=hidden;rotatable=0;points=[[0,0.5],[1,0.5]];portConstraint=eastwest;" vertex="1" parent="WwVNH3uLdDdQ6TR5b7Ma-45">
          <mxGeometry y="112" width="220" height="26" as="geometry" />
        </mxCell>
        <mxCell id="WwVNH3uLdDdQ6TR5b7Ma-56" value="+ setSoLoiPhatHienDuoc(int): void" style="text;html=1;strokeColor=none;fillColor=none;align=left;verticalAlign=top;spacingLeft=4;spacingRight=4;whiteSpace=wrap;overflow=hidden;rotatable=0;points=[[0,0.5],[1,0.5]];portConstraint=eastwest;" vertex="1" parent="WwVNH3uLdDdQ6TR5b7Ma-45">
          <mxGeometry y="138" width="220" height="26" as="geometry" />
        </mxCell>
        <mxCell id="WwVNH3uLdDdQ6TR5b7Ma-58" value="+ Nhap(): void" style="text;html=1;strokeColor=none;fillColor=none;align=left;verticalAlign=top;spacingLeft=4;spacingRight=4;whiteSpace=wrap;overflow=hidden;rotatable=0;points=[[0,0.5],[1,0.5]];portConstraint=eastwest;labelBackgroundColor=default;" vertex="1" parent="WwVNH3uLdDdQ6TR5b7Ma-45">
          <mxGeometry y="164" width="220" height="26" as="geometry" />
        </mxCell>
        <mxCell id="WwVNH3uLdDdQ6TR5b7Ma-59" value="+ Xuat(): void" style="text;html=1;strokeColor=none;fillColor=none;align=left;verticalAlign=top;spacingLeft=4;spacingRight=4;whiteSpace=wrap;overflow=hidden;rotatable=0;points=[[0,0.5],[1,0.5]];portConstraint=eastwest;" vertex="1" parent="WwVNH3uLdDdQ6TR5b7Ma-45">
          <mxGeometry y="190" width="220" height="26" as="geometry" />
        </mxCell>
        <mxCell id="WwVNH3uLdDdQ6TR5b7Ma-60" value="+ Luong(): long" style="text;html=1;strokeColor=none;fillColor=none;align=left;verticalAlign=top;spacingLeft=4;spacingRight=4;whiteSpace=wrap;overflow=hidden;rotatable=0;points=[[0,0.5],[1,0.5]];portConstraint=eastwest;" vertex="1" parent="WwVNH3uLdDdQ6TR5b7Ma-45">
          <mxGeometry y="216" width="220" height="26" as="geometry" />
        </mxCell>
        <mxCell id="WwVNH3uLdDdQ6TR5b7Ma-61" value="+ GetLoai(): string" style="text;html=1;strokeColor=none;fillColor=none;align=left;verticalAlign=top;spacingLeft=4;spacingRight=4;whiteSpace=wrap;overflow=hidden;rotatable=0;points=[[0,0.5],[1,0.5]];portConstraint=eastwest;" vertex="1" parent="WwVNH3uLdDdQ6TR5b7Ma-45">
          <mxGeometry y="242" width="220" height="26" as="geometry" />
        </mxCell>
        <mxCell id="WwVNH3uLdDdQ6TR5b7Ma-62" value="Has - A" style="edgeStyle=elbowEdgeStyle;html=1;labelBackgroundColor=default;startFill=0;startSize=8;endArrow=diamondThin;endFill=0;endSize=16;fontFamily=Times New Roman;fontSize=12;elbow=vertical;align=center;labelPosition=center;verticalLabelPosition=top;verticalAlign=bottom;fontStyle=1" edge="1" parent="1">
          <mxGeometry relative="1" as="geometry">
            <mxPoint x="250" y="198" as="sourcePoint" />
            <mxPoint x="440" y="198" as="targetPoint" />
          </mxGeometry>
        </mxCell>
        <mxCell id="WwVNH3uLdDdQ6TR5b7Ma-63" value="&lt;b&gt;Is - A&lt;/b&gt;" style="endArrow=classic;html=1;rounded=0;entryX=0.25;entryY=1;entryDx=0;entryDy=0;verticalAlign=middle;exitX=0.5;exitY=0;exitDx=0;exitDy=0;labelPosition=left;verticalLabelPosition=middle;align=right;" edge="1" parent="1" source="WwVNH3uLdDdQ6TR5b7Ma-31" target="WwVNH3uLdDdQ6TR5b7Ma-16">
          <mxGeometry width="50" height="50" relative="1" as="geometry">
            <mxPoint x="360" y="482" as="sourcePoint" />
            <mxPoint x="480" y="410" as="targetPoint" />
          </mxGeometry>
        </mxCell>
        <mxCell id="WwVNH3uLdDdQ6TR5b7Ma-65" value="public" style="text;html=1;align=center;verticalAlign=middle;resizable=0;points=[];autosize=1;strokeColor=none;fillColor=none;fontStyle=1" vertex="1" parent="1">
          <mxGeometry x="280" y="730" width="60" height="30" as="geometry" />
        </mxCell>
        <mxCell id="WwVNH3uLdDdQ6TR5b7Ma-66" value="public" style="text;html=1;align=center;verticalAlign=middle;resizable=0;points=[];autosize=1;strokeColor=none;fillColor=none;fontStyle=1" vertex="1" parent="1">
          <mxGeometry x="740" y="730" width="60" height="30" as="geometry" />
        </mxCell>
        <mxCell id="WwVNH3uLdDdQ6TR5b7Ma-67" value="1" style="text;html=1;align=center;verticalAlign=middle;resizable=0;points=[];autosize=1;strokeColor=none;fillColor=none;" vertex="1" parent="1">
          <mxGeometry x="260" y="198" width="30" height="30" as="geometry" />
        </mxCell>
        <mxCell id="WwVNH3uLdDdQ6TR5b7Ma-68" value="n" style="text;html=1;align=center;verticalAlign=middle;resizable=0;points=[];autosize=1;strokeColor=none;fillColor=none;" vertex="1" parent="1">
          <mxGeometry x="400" y="198" width="30" height="30" as="geometry" />
        </mxCell>
        <mxCell id="WwVNH3uLdDdQ6TR5b7Ma-83" value="" style="endArrow=classic;html=1;rounded=0;exitX=0.379;exitY=0.002;exitDx=0;exitDy=0;exitPerimeter=0;" edge="1" parent="1" source="WwVNH3uLdDdQ6TR5b7Ma-45">
          <mxGeometry width="50" height="50" relative="1" as="geometry">
            <mxPoint x="515" y="748" as="sourcePoint" />
            <mxPoint x="560" y="700" as="targetPoint" />
          </mxGeometry>
        </mxCell>
        <mxCell id="WwVNH3uLdDdQ6TR5b7Ma-84" value="&lt;b style=&quot;font-size: 11px;&quot;&gt;Is - A&lt;/b&gt;" style="text;html=1;align=left;verticalAlign=middle;resizable=0;points=[];autosize=1;strokeColor=none;fillColor=none;fontSize=11;labelPosition=right;verticalLabelPosition=middle;" vertex="1" parent="1">
          <mxGeometry x="635" y="728" width="50" height="30" as="geometry" />
        </mxCell>
      </root>
    </mxGraphModel>
  </diagram>
</mxfile>
